<svg width="26" height="24" viewBox="0 0 26 24" fill="none" xmlns="http://www.w3.org/2000/svg">
<path d="M1.221 1.59172C0.52898 1.40299 0.843536 0.333501 1.53556 0.522234L6.37972 1.90628C6.63136 1.96919 6.75719 2.09501 6.8201 2.34666L7.3863 5.99551L24.9385 8.38613C25.316 8.44905 25.5047 8.82651 25.3789 9.14107L22.3592 17.5712C22.2963 17.7599 22.0446 17.9486 21.793 17.9486H8.5187C8.26706 17.9486 8.01541 17.7599 7.9525 17.5083L5.75061 2.84995L1.221 1.59172ZM7.51212 7.12791L9.02199 16.8791H21.4155L24.1207 9.39271L7.51212 7.12791Z" fill="#2AEFC3"/>
<path d="M10.9723 18.452C12.2934 18.452 13.3629 19.5215 13.3629 20.8426C13.3629 22.1638 12.2934 23.2332 10.9723 23.2332C9.65116 23.2332 8.58167 22.1638 8.58167 20.8426C8.58167 19.5215 9.65116 18.452 10.9723 18.452ZM10.9723 19.5844C10.2803 19.5844 9.71407 20.1506 9.71407 20.8426C9.71407 21.5346 10.2803 22.1008 10.9723 22.1008C11.6643 22.1008 12.2305 21.5346 12.2305 20.8426C12.2305 20.1506 11.6643 19.5844 10.9723 19.5844Z" fill="#2AEFC3"/>
<path d="M19.4653 18.452C20.7864 18.452 21.8559 19.5215 21.8559 20.8426C21.8559 22.1638 20.7864 23.2332 19.4653 23.2332C18.1442 23.2332 17.1376 22.1638 17.1376 20.8426C17.1376 19.5215 18.1442 18.452 19.4653 18.452ZM19.4653 19.5844C18.7733 19.5844 18.2071 20.1506 18.2071 20.8426C18.2071 21.5346 18.7733 22.1008 19.4653 22.1008C20.1573 22.1008 20.7235 21.5346 20.7235 20.8426C20.7235 20.1506 20.1573 19.5844 19.4653 19.5844Z" fill="#2AEFC3"/>
</svg>
