<svg width="25" height="24" viewBox="0 0 25 24" fill="none" xmlns="http://www.w3.org/2000/svg">
<rect width="24" height="24" transform="translate(0.0332642)" fill="white"/>
<path d="M18.5089 13.4826C18.81 13.4854 19.0863 13.7395 19.08 14.0173V17.8876C19.08 18.1636 18.8079 18.4148 18.5087 18.4148H5.55957C5.26045 18.4148 4.98831 18.1636 4.98828 17.8876V14.0173C4.98402 13.7388 5.25772 13.4826 5.55957 13.4826C5.86142 13.4826 6.13512 13.7388 6.13085 14.0173V17.3604H17.9375V14.0173C17.9311 13.7358 18.2038 13.4797 18.5089 13.4826V13.4826Z" fill="#818A96"/>
<path d="M12.0357 15.9488C12.1719 15.9439 12.3293 15.892 12.4285 15.8057L15.666 12.9873C15.8515 12.7963 15.9281 12.4301 15.7136 12.2167C15.5023 12.0064 15.0926 12.0127 14.8804 12.2221L12.607 14.2038V5.20374C12.607 4.9119 12.3513 4.67529 12.0357 4.67529C11.7202 4.67529 11.4644 4.9119 11.4644 5.20374V14.2038L9.19105 12.2221C8.99576 12.0418 8.57158 12.0085 8.35787 12.2167C8.14419 12.4248 8.21246 12.8042 8.4055 12.9873L11.643 15.8057C11.7537 15.9021 11.8837 15.9491 12.0357 15.9488V15.9488Z" fill="#818A96"/>
</svg>
