<svg width="23" height="23" viewBox="0 0 23 23" fill="none" xmlns="http://www.w3.org/2000/svg">
<path d="M11.5833 0.380969C12.8557 0.37778 14.094 0.791687 15.1088 1.55932C16.1235 2.32695 16.8587 3.40599 17.2017 4.63124C17.5448 5.85649 17.4769 7.16041 17.0083 8.34336C16.5397 9.52631 15.6964 10.5231 14.6074 11.1811C16.9085 11.8383 18.933 13.2273 20.3742 15.1378C21.8155 17.0483 22.5952 19.3763 22.5952 21.7695C22.5952 21.938 22.5283 22.0995 22.4091 22.2187C22.29 22.3378 22.1284 22.4048 21.9599 22.4048C21.7914 22.4048 21.6298 22.3378 21.5107 22.2187C21.3915 22.0995 21.3246 21.938 21.3246 21.7695C21.3246 19.1859 20.2983 16.7082 18.4715 14.8813C16.6446 13.0545 14.1669 12.0282 11.5833 12.0282C8.99976 12.0282 6.52203 13.0545 4.69518 14.8813C2.86833 16.7082 1.84202 19.1859 1.84202 21.7695C1.84202 21.938 1.77508 22.0995 1.65594 22.2187C1.5368 22.3378 1.37521 22.4048 1.20671 22.4048C1.03822 22.4048 0.876631 22.3378 0.757489 22.2187C0.638346 22.0995 0.571413 21.938 0.571413 21.7695C0.570133 19.3737 1.35017 17.043 2.79322 15.1306C4.23627 13.2183 6.26361 11.8287 8.56775 11.1726C7.48342 10.5133 6.64434 9.51758 6.17835 8.33718C5.71236 7.15679 5.645 5.85642 5.98653 4.63419C6.32807 3.41196 7.05977 2.33488 8.07017 1.56704C9.08057 0.799196 10.3143 0.382688 11.5833 0.380969ZM11.5833 1.65157C10.682 1.65157 9.80089 1.91885 9.05145 2.4196C8.30202 2.92036 7.71791 3.6321 7.37298 4.46483C7.02805 5.29755 6.93781 6.21386 7.11365 7.09787C7.28949 7.98189 7.72353 8.79391 8.36087 9.43125C8.99821 10.0686 9.81023 10.5026 10.6942 10.6785C11.5783 10.8543 12.4946 10.7641 13.3273 10.4191C14.16 10.0742 14.8718 9.4901 15.3725 8.74066C15.8733 7.99123 16.1405 7.11014 16.1405 6.2088C16.1405 5.00015 15.6604 3.841 14.8058 2.98635C13.9511 2.13171 12.792 1.65157 11.5833 1.65157Z" fill="#CAD1DA"/>
</svg>
